<?xml version="1.0" standalone="no"?>
<!DOCTYPE svg PUBLIC "-//W3C//DTD SVG 20010904//EN"
 "http://www.w3.org/TR/2001/REC-SVG-20010904/DTD/svg10.dtd">
<svg version="1.0" xmlns="http://www.w3.org/2000/svg"
 width="512.000000pt" height="512.000000pt" viewBox="0 0 512.000000 512.000000"
 preserveAspectRatio="xMidYMid meet">
<metadata>
Created by potrace 1.16, written by Peter Selinger 2001-2019
</metadata>
<g transform="translate(0.000000,512.000000) scale(0.100000,-0.100000)"
fill="#000000" stroke="none">
<path d="M743 4621 c-104 -38 -180 -107 -231 -211 l-27 -55 0 -675 0 -675 29
-60 c38 -77 114 -153 191 -191 l60 -29 675 0 675 0 60 29 c77 38 153 114 191
191 l29 60 0 675 0 675 -29 60 c-38 77 -114 153 -191 191 l-60 29 -660 2
c-624 2 -663 2 -712 -16z m1352 -167 c55 -30 94 -70 119 -124 21 -44 21 -56
21 -645 0 -667 2 -646 -67 -721 -75 -81 -53 -79 -733 -79 -589 0 -601 0 -645
21 -57 27 -97 67 -124 124 -21 44 -21 56 -21 650 0 594 0 606 21 650 36 77 99
127 179 141 22 4 303 6 625 6 578 -2 585 -2 625 -23z"/>
<path d="M2983 4621 c-104 -38 -180 -107 -231 -211 l-27 -55 0 -675 0 -675 29
-60 c38 -77 114 -153 191 -191 l60 -29 675 0 675 0 60 29 c77 38 153 114 191
191 l29 60 0 675 0 675 -29 60 c-38 77 -114 153 -191 191 l-60 29 -660 2
c-624 2 -663 2 -712 -16z m1352 -167 c55 -30 94 -70 119 -124 21 -44 21 -56
21 -645 0 -667 2 -646 -67 -721 -75 -81 -53 -79 -733 -79 -589 0 -601 0 -645
21 -57 27 -97 67 -124 124 -21 44 -21 56 -21 650 0 594 0 606 21 650 36 77 99
127 179 141 22 4 303 6 625 6 578 -2 585 -2 625 -23z"/>
<path d="M753 2386 c-100 -32 -190 -113 -241 -216 l-27 -55 0 -675 0 -675 29
-60 c38 -77 114 -153 191 -191 l60 -29 675 0 675 0 60 29 c77 38 153 114 191
191 l29 60 0 675 0 675 -29 60 c-38 77 -114 153 -191 191 l-60 29 -660 2
c-528 2 -668 -1 -702 -11z m1342 -172 c55 -30 94 -70 119 -124 21 -44 21 -56
21 -645 0 -667 2 -646 -67 -721 -75 -81 -53 -79 -733 -79 -589 0 -601 0 -645
21 -25 12 -58 34 -74 50 -16 16 -38 49 -50 74 -21 44 -21 56 -21 650 0 594 0
606 21 650 36 77 99 127 179 141 22 4 303 6 625 6 578 -2 585 -2 625 -23z"/>
<path d="M3480 2385 c-357 -80 -630 -337 -732 -691 -20 -69 -23 -101 -23 -254
0 -153 3 -185 23 -254 96 -332 343 -581 673 -677 113 -32 342 -38 466 -11 351
78 623 336 725 688 20 69 23 101 23 254 0 153 -3 185 -23 254 -96 332 -343
580 -673 677 -97 28 -359 36 -459 14z m395 -175 c81 -20 214 -87 292 -146 93
-72 163 -158 219 -269 138 -280 108 -594 -83 -843 -103 -134 -284 -249 -452
-287 -104 -23 -255 -21 -356 5 -104 26 -244 96 -322 160 -123 102 -232 280
-267 437 -23 102 -21 260 4 359 26 102 96 243 158 318 194 233 510 337 807
266z"/>
</g>
</svg>
