<?xml version="1.0" standalone="no"?>
<!DOCTYPE svg PUBLIC "-//W3C//DTD SVG 20010904//EN"
 "http://www.w3.org/TR/2001/REC-SVG-20010904/DTD/svg10.dtd">
<svg version="1.0" xmlns="http://www.w3.org/2000/svg"
 width="512.000000pt" height="512.000000pt" viewBox="0 0 512.000000 512.000000"
 preserveAspectRatio="xMidYMid meet">
<metadata>
Created by potrace 1.16, written by Peter Selinger 2001-2019
</metadata>
<g transform="translate(0.000000,512.000000) scale(0.100000,-0.100000)"
fill="#000000" stroke="none">
<path d="M1965 5057 c-105 -111 -171 -250 -196 -414 -11 -71 -15 -82 -40 -97
-38 -22 -84 -83 -115 -150 l-26 -56 46 -191 c56 -232 112 -504 126 -619 5 -46
10 -166 10 -266 l0 -181 -131 -219 c-382 -639 -847 -1267 -1252 -1692 -110
-115 -117 -125 -117 -163 0 -31 6 -46 28 -66 39 -37 271 -188 392 -257 l105
-59 -3 -39 c-3 -28 1 -45 14 -60 44 -48 396 -238 442 -238 27 0 69 35 76 64
12 49 -8 73 -106 122 -51 25 -124 64 -161 86 l-68 39 35 47 c163 216 451 675
628 1002 194 357 448 881 448 924 0 13 -9 35 -21 50 -31 39 -88 37 -123 -5
-14 -17 -26 -34 -26 -39 0 -5 -45 -105 -101 -222 -180 -381 -414 -810 -621
-1143 -99 -157 -291 -439 -306 -449 -16 -10 -422 234 -422 253 0 3 43 53 96
111 406 445 817 1006 1195 1635 l127 210 667 0 668 0 129 -215 c361 -600 832
-1243 1197 -1632 50 -54 91 -103 91 -108 0 -13 -133 -99 -295 -192 l-120 -69
-23 28 c-42 51 -308 456 -390 593 -183 308 -436 790 -583 1113 -33 73 -68 138
-77 145 -8 6 -31 12 -49 12 -40 0 -83 -37 -83 -72 0 -49 307 -677 495 -1013
172 -308 399 -667 549 -870 l66 -90 -22 -17 c-42 -31 -253 -137 -376 -187
-558 -229 -1103 -294 -1667 -200 -130 22 -336 73 -454 114 -90 30 -111 31
-145 4 -19 -15 -26 -30 -26 -55 0 -60 12 -70 132 -109 233 -75 464 -123 700
-146 187 -17 565 -7 743 21 413 63 828 208 1168 409 131 78 149 95 145 145
l-3 41 130 75 c134 78 176 105 307 198 57 40 80 64 88 88 15 45 6 59 -109 179
-422 438 -923 1122 -1317 1797 l-76 131 5 226 c4 158 12 257 25 330 26 141 12
181 -65 181 -66 0 -79 -29 -106 -230 l-13 -95 -637 -3 -637 -2 -4 22 c-3 13
-10 59 -16 103 -18 120 -56 308 -106 513 -40 166 -42 186 -30 210 50 95 170
137 326 113 96 -15 256 -69 359 -120 44 -23 92 -41 106 -41 14 0 62 18 106 41
113 56 276 109 378 121 141 18 226 -9 294 -94 l29 -36 -31 -129 c-17 -71 -31
-142 -31 -159 0 -65 86 -99 133 -51 16 16 33 66 61 183 l39 161 -31 67 c-20
43 -51 86 -85 119 -51 50 -54 55 -66 127 -26 159 -96 305 -196 408 -60 61 -64
63 -106 60 -40 -3 -47 -7 -75 -51 -57 -88 -121 -267 -161 -450 -8 -37 -10 -39
-103 -76 -52 -20 -108 -44 -124 -53 -28 -15 -33 -14 -105 20 -42 19 -98 43
-126 52 l-50 17 -17 84 c-31 151 -109 354 -164 426 -21 28 -31 33 -67 33 -38
0 -47 -5 -102 -63z m101 -194 c21 -51 61 -171 68 -209 l7 -31 -103 5 c-57 2
-104 6 -106 7 -8 7 51 164 79 211 18 29 34 54 36 54 1 0 10 -17 19 -37z m1076
-60 c26 -54 61 -164 55 -169 -1 -1 -48 -4 -104 -6 l-103 -5 6 26 c10 45 46
154 67 205 19 45 21 47 35 30 8 -11 28 -47 44 -81z m58 -1568 l0 -95 -635 0
-635 0 0 95 0 95 635 0 635 0 0 -95z"/>
</g>
</svg>
