<?xml version="1.0" standalone="no"?>
<!DOCTYPE svg PUBLIC "-//W3C//DTD SVG 20010904//EN"
 "http://www.w3.org/TR/2001/REC-SVG-20010904/DTD/svg10.dtd">
<svg version="1.0" xmlns="http://www.w3.org/2000/svg"
 width="512.000000pt" height="512.000000pt" viewBox="0 0 512.000000 512.000000"
 preserveAspectRatio="xMidYMid meet">
<metadata>
Created by potrace 1.16, written by Peter Selinger 2001-2019
</metadata>
<g transform="translate(0.000000,512.000000) scale(0.100000,-0.100000)"
fill="#000000" stroke="none">
<path d="M1360 4980 c-167 -29 -304 -146 -362 -308 -17 -46 -22 -95 -28 -247
-6 -168 -10 -199 -34 -270 -56 -166 -179 -319 -323 -403 -58 -34 -73 -48 -78
-73 -10 -44 20 -83 66 -87 46 -4 141 53 236 142 91 84 151 167 202 278 59 126
73 198 80 403 8 205 18 239 91 319 163 177 442 114 529 -119 20 -53 21 -76 21
-435 l0 -378 -37 -13 c-173 -56 -269 -248 -214 -427 25 -82 91 -163 165 -202
l44 -24 -59 -110 c-272 -506 -481 -973 -539 -1211 -31 -123 -25 -274 14 -390
76 -223 249 -396 471 -471 115 -39 286 -45 405 -15 141 35 241 91 346 196 77
76 98 105 137 185 61 124 80 201 80 325 0 108 -17 189 -74 351 -78 222 -257
605 -452 971 -48 89 -87 164 -87 167 0 2 24 18 53 34 102 57 158 152 165 277
3 64 0 91 -17 135 -39 104 -119 184 -213 212 l-38 11 0 381 c0 339 -2 389 -18
447 -49 176 -187 308 -359 344 -74 16 -104 17 -173 5z m548 -1335 c74 -31 122
-102 122 -179 0 -58 -14 -93 -53 -135 -130 -137 -361 -25 -333 162 18 122 151
198 264 152z m145 -1025 c249 -497 377 -826 377 -969 -1 -143 -68 -299 -175
-406 -237 -237 -607 -236 -840 3 -104 106 -156 225 -163 373 -4 81 0 110 22
192 47 171 221 578 361 842 23 44 77 147 120 229 l78 149 18 -24 c11 -13 101
-188 202 -389z"/>
<path d="M1796 2579 c-23 -14 -206 -389 -280 -575 -60 -151 -96 -276 -96 -333
0 -58 28 -151 63 -210 128 -214 440 -260 628 -93 134 119 170 275 108 469 -65
205 -308 733 -344 746 -24 10 -57 8 -79 -4z m171 -509 c135 -306 157 -408 107
-508 -78 -157 -277 -196 -408 -81 -89 79 -113 168 -77 287 25 85 107 283 187
454 l59 127 34 -67 c19 -37 63 -132 98 -212z"/>
<path d="M3308 4181 c-148 -48 -262 -166 -308 -316 -7 -22 -15 -123 -20 -225
-8 -209 -27 -290 -97 -410 -48 -83 -181 -218 -256 -260 -73 -41 -93 -69 -80
-113 10 -38 50 -61 88 -51 45 11 172 101 240 169 71 71 142 173 182 263 48
109 64 195 72 392 7 161 11 191 30 231 34 72 85 125 153 158 115 58 245 38
343 -51 32 -29 65 -72 82 -106 l28 -57 0 -394 0 -393 -51 -19 c-74 -28 -137
-88 -176 -167 -30 -59 -33 -76 -33 -152 0 -76 3 -92 33 -152 34 -70 86 -123
152 -156 l38 -18 -85 -160 c-200 -371 -391 -787 -468 -1014 -54 -158 -68 -239
-62 -354 9 -190 75 -334 217 -476 90 -90 190 -152 298 -184 297 -87 613 11
799 248 147 188 194 419 130 646 -31 114 -86 264 -152 415 -60 140 -271 569
-367 746 l-74 136 32 12 c52 19 130 96 161 159 25 50 28 68 28 152 0 76 -4
104 -22 142 -34 73 -104 142 -179 174 l-64 28 0 376 c0 413 -3 436 -61 552
-44 87 -121 161 -216 206 -72 34 -86 37 -178 39 -77 2 -113 -1 -157 -16z m632
-1330 c19 -9 50 -39 68 -65 27 -40 32 -58 32 -104 0 -176 -211 -263 -332 -135
-57 60 -72 137 -39 208 50 109 166 150 271 96z m-10 -751 c247 -459 436 -888
491 -1115 23 -96 23 -137 4 -230 -48 -227 -235 -413 -465 -461 -245 -52 -515
78 -634 306 -82 156 -87 301 -17 509 22 68 64 178 92 245 107 254 435 904 450
889 4 -5 40 -69 79 -143z"/>
<path d="M3806 1798 c-21 -12 -175 -323 -259 -524 -108 -257 -131 -363 -103
-473 43 -170 163 -281 336 -313 175 -33 362 65 443 232 29 60 32 73 31 165 0
83 -5 115 -28 185 -67 202 -297 696 -337 723 -27 19 -56 21 -83 5z m128 -414
c167 -364 200 -489 156 -592 -41 -96 -144 -162 -251 -162 -71 0 -165 52 -206
114 -62 91 -65 148 -17 291 56 166 222 531 236 517 4 -4 41 -80 82 -168z"/>
</g>
</svg>
