<?xml version="1.0" standalone="no"?>
<!DOCTYPE svg PUBLIC "-//W3C//DTD SVG 20010904//EN"
 "http://www.w3.org/TR/2001/REC-SVG-20010904/DTD/svg10.dtd">
<svg version="1.0" xmlns="http://www.w3.org/2000/svg"
 width="512.000000pt" height="512.000000pt" viewBox="0 0 512.000000 512.000000"
 preserveAspectRatio="xMidYMid meet">
<metadata>
Created by potrace 1.16, written by Peter Selinger 2001-2019
</metadata>
<g transform="translate(0.000000,512.000000) scale(0.100000,-0.100000)"
fill="#000000" stroke="none">
<path d="M1185 4890 c-57 -28 -939 -913 -960 -962 -21 -52 -19 -133 5 -182 13
-27 176 -197 477 -498 506 -504 484 -487 602 -475 130 14 216 145 181 277 -10
40 -42 75 -273 308 l-261 262 1652 0 1652 0 0 -346 c0 -374 3 -399 52 -459 43
-52 95 -75 168 -75 73 0 125 23 168 76 51 62 54 85 50 509 -3 380 -4 392 -26
447 -50 124 -142 217 -258 261 l-59 22 -1700 3 -1699 2 261 263 c273 274 283
287 283 372 0 83 -51 163 -125 196 -54 25 -139 24 -190 -1z"/>
<path d="M576 2340 c-75 -24 -140 -99 -151 -174 -4 -22 -5 -203 -3 -401 3
-344 4 -363 25 -419 44 -116 137 -208 261 -258 l57 -23 1698 -5 1697 -5 -251
-250 c-138 -137 -259 -267 -270 -287 -26 -51 -26 -146 1 -197 55 -108 189
-148 300 -91 54 28 936 917 955 962 21 52 19 133 -5 182 -28 58 -911 940 -962
961 -52 21 -140 19 -186 -4 -73 -38 -122 -113 -122 -188 0 -94 6 -102 283
-380 l261 -263 -1651 0 -1652 0 -3 348 c-3 300 -5 351 -20 377 -21 39 -65 83
-101 102 -36 18 -122 26 -161 13z"/>
</g>
</svg>
