<?xml version="1.0" standalone="no"?>
<!DOCTYPE svg PUBLIC "-//W3C//DTD SVG 20010904//EN"
 "http://www.w3.org/TR/2001/REC-SVG-20010904/DTD/svg10.dtd">
<svg version="1.0" xmlns="http://www.w3.org/2000/svg"
 width="512.000000pt" height="512.000000pt" viewBox="0 0 512.000000 512.000000"
 preserveAspectRatio="xMidYMid meet">
<metadata>
Created by potrace 1.16, written by Peter Selinger 2001-2019
</metadata>
<g transform="translate(0.000000,512.000000) scale(0.100000,-0.100000)"
fill="#000000" stroke="none">
<path d="M298 5091 c-30 -19 -52 -44 -67 -74 -21 -44 -22 -50 -19 -505 l3
-460 31 -39 c16 -21 50 -48 74 -60 44 -23 47 -23 485 -23 405 0 443 2 480 19
153 69 154 296 2 367 -49 23 -62 24 -252 24 l-200 1 35 30 c187 162 425 276
675 325 80 15 182 18 910 21 900 5 1046 0 1214 -43 470 -118 834 -459 980
-917 67 -212 66 -185 66 -1197 0 -844 -1 -922 -18 -1010 -74 -386 -280 -701
-599 -919 -64 -43 -228 -124 -307 -150 -228 -78 -332 -84 -1348 -78 -904 5
-879 3 -1091 72 -418 135 -747 467 -881 888 -60 187 -62 217 -68 762 l-5 500
-24 42 c-36 62 -94 93 -174 93 -80 0 -138 -31 -175 -95 l-26 -44 4 -553 c4
-550 4 -554 29 -663 85 -368 243 -652 504 -906 267 -259 576 -416 946 -479
123 -20 147 -21 1119 -18 990 3 994 3 1094 26 363 82 634 225 883 466 269 260
434 558 513 931 l24 110 0 1025 0 1025 -24 110 c-79 371 -242 669 -507 926
-255 247 -533 394 -889 470 l-110 24 -1020 0 -1020 0 -113 -23 c-272 -55 -526
-169 -731 -327 -39 -30 -73 -55 -75 -55 -2 0 -5 60 -8 134 -4 122 -7 137 -31
179 -39 66 -95 97 -178 97 -55 0 -73 -5 -111 -29z"/>
<path d="M2453 3914 c-24 -14 -54 -44 -68 -68 l-25 -43 0 -654 0 -655 29 -45
c46 -70 829 -845 873 -864 73 -30 171 -13 227 38 56 52 77 159 46 235 -11 25
-139 160 -395 417 l-380 380 0 574 0 574 -25 43 c-37 63 -95 94 -176 94 -51 0
-73 -5 -106 -26z"/>
</g>
</svg>
