<?xml version="1.0" standalone="no"?>
<!DOCTYPE svg PUBLIC "-//W3C//DTD SVG 20010904//EN"
 "http://www.w3.org/TR/2001/REC-SVG-20010904/DTD/svg10.dtd">
<svg version="1.0" xmlns="http://www.w3.org/2000/svg"
 width="512.000000pt" height="512.000000pt" viewBox="0 0 512.000000 512.000000"
 preserveAspectRatio="xMidYMid meet">
<metadata>
Created by potrace 1.16, written by Peter Selinger 2001-2019
</metadata>
<g transform="translate(0.000000,512.000000) scale(0.100000,-0.100000)"
fill="#000000" stroke="none">
<path d="M372 4627 c-78 -78 -142 -147 -142 -152 0 -6 141 -151 314 -324 l314
-314 -92 -77 c-208 -175 -427 -435 -575 -683 -62 -104 -179 -343 -187 -384 -9
-48 110 -299 234 -492 514 -798 1375 -1271 2313 -1271 338 0 609 44 909 149
l115 40 385 -385 c212 -211 390 -384 395 -384 6 0 77 66 158 148 l147 147
-2063 2063 c-1134 1134 -2067 2062 -2072 2062 -6 0 -74 -64 -153 -143z m1490
-1916 c-4 -97 -1 -131 17 -201 79 -316 349 -531 670 -533 53 0 110 3 126 7 28
6 39 -3 205 -169 140 -140 172 -177 160 -185 -8 -5 -53 -23 -100 -40 -295
-108 -612 -90 -893 51 -206 103 -393 282 -501 480 -170 310 -188 684 -50 998
l25 55 173 -173 173 -173 -5 -117z"/>
<path d="M2380 4419 c-128 -7 -339 -38 -445 -65 -92 -23 -305 -88 -305 -94 0
-3 114 -119 253 -258 l252 -252 70 24 c127 44 234 59 395 53 157 -5 251 -24
388 -77 250 -96 485 -314 610 -565 130 -263 152 -576 59 -868 l-21 -68 339
-339 c187 -187 343 -340 348 -340 16 0 211 186 292 279 206 236 356 469 466
723 29 67 39 101 35 122 -9 46 -148 321 -217 431 -412 655 -1068 1107 -1814
1249 -227 43 -479 59 -705 45z"/>
<path d="M2520 3374 c0 -5 167 -176 371 -379 l371 -370 -5 95 c-9 156 -61 290
-159 407 -89 106 -222 192 -354 227 -70 19 -224 33 -224 20z"/>
</g>
</svg>
