<?xml version="1.0" encoding="utf-8"?>
<!-- Generator: Adobe Illustrator 24.1.1, SVG Export Plug-In . SVG Version: 6.00 Build 0)  -->
<svg version="1.1" id="Layer_1" xmlns="http://www.w3.org/2000/svg" xmlns:xlink="http://www.w3.org/1999/xlink" x="0px" y="0px"
	 viewBox="0 0 6281 6281" style="enable-background:new 0 0 6281 6281;" xml:space="preserve">
<style type="text/css">
	.st0{opacity:0.5;}
	.st1{fill:#FEA200;}
</style>
<g class="st0">
	<path class="st1" d="M670.11,5688l11.58,50.85h3.87l10.94-49.55l204.03-689.27h198.24l-318.59,937.06H587.08l-317.94-937.06h198.24
		L670.11,5688z"/>
	<path class="st1" d="M1766.8,5524.97h-388.09v267.07h453.74v145.05h-641.67v-937.06h640.4v145.05h-452.47v234.84h388.09V5524.97z"
		/>
	<path class="st1" d="M2135.59,5562.95v374.13h-187.93v-937.06H2301c106.84,0,190.39,24.37,250.69,73.1
		c60.27,48.73,90.42,116.66,90.42,203.81c0,48.53-12.66,90.17-37.97,124.94c-25.33,34.79-62.43,62.9-111.34,84.36
		c55.35,16.3,95.13,43.53,119.38,81.68c24.25,38.17,36.37,85.33,36.37,141.49v68.82c0,26.15,3.53,53.49,10.61,82
		c7.09,28.53,19.21,49.64,36.37,63.35v13.51H2501.8c-17.16-13.71-28.33-36.64-33.47-68.78c-5.14-32.13-7.72-62.56-7.72-91.28v-66.21
		c0-46.71-12.77-83.03-38.29-108.97c-25.54-25.92-61.46-38.89-107.8-38.89H2135.59z M2135.59,5417.91h162.19
		c52.77,0,92.13-11.15,118.1-33.46c25.96-22.3,38.94-55.33,38.94-99.09c0-42.9-12.99-77-38.94-102.31
		c-25.97-25.31-64.27-37.97-114.88-37.97h-165.41V5417.91z"/>
	<path d="M3324.96,5692.64c0-35.94-12.77-64.81-38.29-86.63c-25.54-21.82-70.26-42.36-134.18-61.62
		c-111.56-32.23-195.88-70.47-252.93-114.72c-57.07-44.25-85.6-104.85-85.6-181.78c0-76.91,32.7-139.74,98.14-188.52
		c65.44-48.76,148.99-73.15,250.69-73.15c102.98,0,186.87,27.36,251.66,82.06c64.79,54.72,96.11,122.19,93.96,202.41l-1.29,3.87
		h-182.14c0-42.68-14.48-77.24-43.44-103.66c-28.96-26.41-69.61-39.63-121.95-39.63c-50.22,0-89.05,11.08-116.5,33.22
		c-27.47,22.16-41.19,50.47-41.19,84.97c0,31.51,14.7,57.4,44.09,77.63c29.39,20.24,80.11,41.64,152.21,64.2
		c103.41,28.78,181.71,66.77,234.91,113.98c53.21,47.23,79.81,109.27,79.81,186.11c0,80.29-31.66,143.61-94.94,189.98
		c-63.28,46.37-146.85,69.54-250.67,69.54c-102.13,0-191.17-26.28-267.11-78.84c-75.94-52.56-112.85-126.25-110.69-221.08l1.3-3.87
		h182.78c0,55.62,17.05,96.36,51.16,122.22c34.1,25.88,81.63,38.82,142.57,38.82c51.05,0,90.1-10.47,117.13-31.44
		C3311.44,5755.74,3324.96,5727.72,3324.96,5692.64z"/>
	<path d="M4157.78,5734.48h-328.88l-63.71,202.61h-189.87l322.46-937.06h192.43l321.16,937.06h-189.85L4157.78,5734.48z
		 M3875.24,5589.43h236.21l-115.84-369.94h-3.87L3875.24,5589.43z"/>
	<path d="M5206.22,5617.92l1.28,3.87c1.73,100.84-29.07,180.9-92.35,240.18c-63.3,59.29-151.15,88.93-263.57,88.93
		c-112.85,0-204.44-36.26-274.81-108.82s-105.55-165.93-105.55-280.15v-186.11c0-113.75,34.32-207.12,102.98-280.11
		c68.64-72.99,157.89-109.49,267.74-109.49c115.84,0,206.37,29.75,271.59,89.25s96.97,140.53,95.26,243.08l-1.29,3.87h-182.77
		c0-61.79-14.8-109.09-44.41-141.92c-29.61-32.81-75.74-49.23-138.38-49.23c-56.23,0-100.85,22.84-133.88,68.5
		c-33.04,45.65-49.55,103.86-49.55,174.58v187.14c0,71.61,17.38,130.25,52.13,175.9c34.75,45.65,81.73,68.48,140.95,68.48
		c58.78,0,102.22-15.76,130.33-47.29c28.1-31.53,42.16-78.41,42.16-140.64H5206.22z"/>
	<path d="M5917.39,5524.97H5529.3v267.07h453.74v145.05h-641.67v-937.06h640.4v145.05H5529.3v234.84h388.09V5524.97z"/>
</g>
<g>
	<path class="st1" d="M5272.03,1690.43c-13.3-1.87-27.75,6.23-35.43,20.26c-33.8,52.68-75.34,110.4-126.15,169.8
		c-66.42,77.65-132.97,139.82-192.38,188.7v-504.52h-514.3c-17.74,90.27-35.48,180.54-53.22,270.81
		c-16.98-107.08-16.67-212.84-19.52-317.98c-0.34,0.02-0.68,0.04-1.01,0.05c-36.29,1.82-72.66,0.38-108.93-1.24
		c-2.11-0.09-4.23-0.18-6.34-0.27c3.68,100.78,2.35,202.05,0.23,303.33c-9.1,1.65-18.19,3.3-27.29,4.96
		c-16.5-86.55-33-173.11-49.5-259.66h-932.5c-16.47,89.93-32.94,179.86-49.41,269.8c-2.69,2.37-5.08,3.23-7.21,2.96
		c-7.43-0.91-15.2-15.91-19.82-68.03c4.53-104.58,9.07-209.16,13.6-313.74c-5.5,0.37-11,0.71-16.51,1.01
		c-35.93,1.93-72.13,2.2-108.06-0.48c-2.34,65.16-4.25,130.38-7.58,195.35c-2.91,56.73-0.45,113.73-0.45,170.61
		c-8.65,0.28-17.3,0.56-25.96,0.84c-18.03-86.11-36.06-172.22-54.1-258.32c-181.18-0.17-362.35-0.34-543.53-0.51
		c-18.63,498.54-37.27,997.08-55.9,1495.63c-2.85,34.07-11.86,58.16-19.99,61.79c-10.94,4.88-17.13,1.5-17.13,1.5l0,0
		c-11.92-4.6-15.32-18.49-15.76-20.41c-20.96-512.86-41.92-1025.71-62.88-1538.57h-579.75v1466.26
		c-53.73-9.82-123.54-31.08-192.63-78.06c-31.79-21.62-77.27-53.22-113.84-110.76c0,0-43.94-69.15-51.71-153.83
		c-20.73-225.89,173-543.21,263.19-655.15c15.74-19.53,13.39-47.07-3.03-61.75c-13.38-11.97-34.38-13.86-51.58-4.08
		c-40.54,30.46-96.98,76.41-157.53,138.92c-61.88,63.89-495.4,511.47-345.95,887.73c75.55,190.21,273.05,299.87,316.39,320.01
		c68.06,31.63,140.31,56.28,212.86,75.84c334.42,90.15,672.35,77.95,1010.5,25.85c1058.13-163.04,1995.33-714.4,2330.88-1025.75
		c284.81-264.26,412.68-563.13,412.68-563.13c16.26-37.99,27.86-69.57,34.71-88.98C5305.17,1713.79,5290.1,1692.97,5272.03,1690.43z
		"/>
	<path class="st1" d="M2307.63,4630.13c-227.21-107.93-445.15-211.46-667.51-317.09c0-229.35,0-453.92,0-687.08
		c1234.95,77.5,2308.17-319.55,3272.07-1082.18c0,413.68,0,818.24,0,1242.62C4047.51,4066.51,3180.24,4347.45,2307.63,4630.13z"/>
	<g>
		<path class="st1" d="M4350.54,2144.03h-134.61V1000.7c0-295.55-240.44-535.99-535.99-535.99c-294.14,0-533.7,238.18-535.97,531.8
			l0.15,0v1147.53h-134.61V1000.7l-0.17,0c0-90.5,17.74-178.33,52.73-261.05c33.78-79.86,82.12-151.57,143.69-213.14
			c61.57-61.56,133.27-109.91,213.14-143.69c82.72-34.99,170.55-52.73,261.05-52.73c90.5,0,178.33,17.74,261.05,52.73
			c79.86,33.78,151.57,82.12,213.14,143.69c61.56,61.56,109.91,133.27,143.69,213.14c34.45,81.44,52.17,167.84,52.71,256.86h0.01
			V2144.03z"/>
	</g>
	<g>
		<path class="st1" d="M3111.68,580.76c-28.24,0.18-224.53,4.71-355.9,166.23c-91.31,112.27-99.02,236.16-99.77,277.94
			c0.04,0,0.09,0,0.13,0v493.6h-134.61V1028.5l-0.14,0c0-78.6,15.41-154.88,45.8-226.72c29.34-69.36,71.32-131.64,124.79-185.11
			c53.47-53.47,115.75-95.45,185.11-124.79c29.56-12.5,59.86-22.47,90.78-29.87c27.22-6.52,75.24-15.93,135.95-15.93
			c46.46,0,87.78,5.5,122.56,12.89c-18.22,15.3-37.65,33.16-57.42,53.85C3146.4,536.43,3127.47,559.48,3111.68,580.76z"/>
		<path class="st1" d="M3447.53,558.22c19.04,13.96,42.86,33.2,68.11,58.45c38.38,38.39,63.73,74.38,78.17,96.81
			c17.98,27.93,33.55,57.41,46.62,88.3c29.93,70.76,45.33,145.81,45.79,223.15h0.01v484.37h-134.61V1028.5
			c0-40.51-5.48-132.91-63.36-229.44c-52.86-88.16-122.76-135.29-157.65-155.67c17.26-16.41,38.08-34.1,62.77-51.5
			C3412.34,578.53,3430.62,567.43,3447.53,558.22z"/>
	</g>
	<path class="st1" d="M3111.68,580.76"/>
</g>
<g>
	<path class="st1" d="M670.11,5688l11.58,50.85h3.87l10.94-49.55l204.03-689.27h198.24l-318.59,937.06H587.08l-317.94-937.06h198.24
		L670.11,5688z"/>
	<path class="st1" d="M1766.8,5524.97h-388.09v267.07h453.74v145.05h-641.67v-937.06h640.4v145.05h-452.47v234.84h388.09V5524.97z"
		/>
	<path class="st1" d="M2135.59,5562.95v374.13h-187.93v-937.06H2301c106.84,0,190.39,24.37,250.69,73.1
		c60.27,48.73,90.42,116.66,90.42,203.81c0,48.53-12.66,90.17-37.97,124.94c-25.33,34.79-62.43,62.9-111.34,84.36
		c55.35,16.3,95.13,43.53,119.38,81.68c24.25,38.17,36.37,85.33,36.37,141.49v68.82c0,26.15,3.53,53.49,10.61,82
		c7.09,28.53,19.21,49.64,36.37,63.35v13.51H2501.8c-17.16-13.71-28.33-36.64-33.47-68.78c-5.14-32.13-7.72-62.56-7.72-91.28v-66.21
		c0-46.71-12.77-83.03-38.29-108.97c-25.54-25.92-61.46-38.89-107.8-38.89H2135.59z M2135.59,5417.91h162.19
		c52.77,0,92.13-11.15,118.1-33.46c25.96-22.3,38.94-55.33,38.94-99.09c0-42.9-12.99-77-38.94-102.31
		c-25.97-25.31-64.27-37.97-114.88-37.97h-165.41V5417.91z"/>
	<path class="st1" d="M3324.96,5692.64c0-35.94-12.77-64.81-38.29-86.63c-25.54-21.82-70.26-42.36-134.18-61.62
		c-111.56-32.23-195.88-70.47-252.93-114.72c-57.07-44.25-85.6-104.85-85.6-181.78c0-76.91,32.7-139.74,98.14-188.52
		c65.44-48.76,148.99-73.15,250.69-73.15c102.98,0,186.87,27.36,251.66,82.06c64.79,54.72,96.11,122.19,93.96,202.41l-1.29,3.87
		h-182.14c0-42.68-14.48-77.24-43.44-103.66c-28.96-26.41-69.61-39.63-121.95-39.63c-50.22,0-89.05,11.08-116.5,33.22
		c-27.47,22.16-41.19,50.47-41.19,84.97c0,31.51,14.7,57.4,44.09,77.63c29.39,20.24,80.11,41.64,152.21,64.2
		c103.41,28.78,181.71,66.77,234.91,113.98c53.21,47.23,79.81,109.27,79.81,186.11c0,80.29-31.66,143.61-94.94,189.98
		c-63.28,46.37-146.85,69.54-250.67,69.54c-102.13,0-191.17-26.28-267.11-78.84c-75.94-52.56-112.85-126.25-110.69-221.08l1.3-3.87
		h182.78c0,55.62,17.05,96.36,51.16,122.22c34.1,25.88,81.63,38.82,142.57,38.82c51.05,0,90.1-10.47,117.13-31.44
		C3311.44,5755.74,3324.96,5727.72,3324.96,5692.64z"/>
	<path class="st1" d="M4157.78,5734.48h-328.88l-63.71,202.61h-189.87l322.46-937.06h192.43l321.16,937.06h-189.85L4157.78,5734.48z
		 M3875.24,5589.43h236.21l-115.84-369.94h-3.87L3875.24,5589.43z"/>
	<path class="st1" d="M5206.22,5617.92l1.28,3.87c1.73,100.84-29.07,180.9-92.35,240.18c-63.3,59.29-151.15,88.93-263.57,88.93
		c-112.85,0-204.44-36.26-274.81-108.82s-105.55-165.93-105.55-280.15v-186.11c0-113.75,34.32-207.12,102.98-280.11
		c68.64-72.99,157.89-109.49,267.74-109.49c115.84,0,206.37,29.75,271.59,89.25s96.97,140.53,95.26,243.08l-1.29,3.87h-182.77
		c0-61.79-14.8-109.09-44.41-141.92c-29.61-32.81-75.74-49.23-138.38-49.23c-56.23,0-100.85,22.84-133.88,68.5
		c-33.04,45.65-49.55,103.86-49.55,174.58v187.14c0,71.61,17.38,130.25,52.13,175.9c34.75,45.65,81.73,68.48,140.95,68.48
		c58.78,0,102.22-15.76,130.33-47.29c28.1-31.53,42.16-78.41,42.16-140.64H5206.22z"/>
	<path class="st1" d="M5917.39,5524.97H5529.3v267.07h453.74v145.05h-641.67v-937.06h640.4v145.05H5529.3v234.84h388.09V5524.97z"/>
</g>
</svg>
