<?xml version="1.0" standalone="no"?>
<!DOCTYPE svg PUBLIC "-//W3C//DTD SVG 20010904//EN"
 "http://www.w3.org/TR/2001/REC-SVG-20010904/DTD/svg10.dtd">
<svg version="1.0" xmlns="http://www.w3.org/2000/svg"
 width="512.000000pt" height="512.000000pt" viewBox="0 0 512.000000 512.000000"
 preserveAspectRatio="xMidYMid meet">
<metadata>
Created by potrace 1.16, written by Peter Selinger 2001-2019
</metadata>
<g transform="translate(0.000000,512.000000) scale(0.100000,-0.100000)"
fill="#000000" stroke="none">
<path d="M2260 5100 c-920 -155 -1587 -930 -1592 -1850 0 -156 10 -248 47
-405 54 -230 142 -444 274 -667 80 -135 1337 -2038 1381 -2089 102 -121 278
-121 380 0 44 51 1300 1952 1381 2088 163 276 266 558 309 848 17 109 14 348
-5 474 -62 415 -239 768 -533 1064 -288 291 -638 471 -1049 537 -160 26 -439
26 -593 0z m521 -226 c376 -52 710 -222 971 -492 249 -259 395 -556 454 -922
20 -127 15 -373 -11 -490 -51 -233 -138 -453 -266 -670 -116 -195 -1355 -2065
-1369 -2065 -14 0 -1253 1870 -1369 2065 -128 217 -215 437 -266 670 -26 117
-31 363 -11 490 90 563 417 1011 924 1264 275 138 630 194 943 150z"/>
<path d="M2361 4215 c-137 -31 -249 -76 -341 -138 -273 -184 -430 -441 -459
-752 -51 -558 336 -1030 898 -1095 356 -42 728 131 934 434 214 315 228 746
34 1073 -132 224 -337 383 -592 459 -78 23 -112 27 -250 30 -114 3 -178 -1
-224 -11z m424 -249 c211 -69 369 -205 465 -401 65 -135 84 -224 78 -374 -4
-90 -11 -134 -32 -196 -110 -326 -399 -536 -736 -536 -337 0 -626 210 -736
536 -36 108 -44 276 -20 391 22 101 101 262 163 335 117 136 264 225 438 265
96 22 281 13 380 -20z"/>
</g>
</svg>
