<?xml version="1.0" standalone="no"?>
<!DOCTYPE svg PUBLIC "-//W3C//DTD SVG 20010904//EN"
 "http://www.w3.org/TR/2001/REC-SVG-20010904/DTD/svg10.dtd">
<svg version="1.0" xmlns="http://www.w3.org/2000/svg"
 width="512.000000pt" height="512.000000pt" viewBox="0 0 512.000000 512.000000"
 preserveAspectRatio="xMidYMid meet">
<metadata>
Created by potrace 1.16, written by Peter Selinger 2001-2019
</metadata>
<g transform="translate(0.000000,512.000000) scale(0.100000,-0.100000)"
fill="#000000" stroke="none">
<path d="M1800 4953 c-29 -11 -37 -29 -84 -168 l-23 -70 -414 -76 c-228 -41
-423 -78 -434 -82 -11 -4 -206 -193 -433 -420 -406 -406 -412 -413 -412 -453
0 -36 27 -78 290 -454 159 -227 295 -417 302 -422 7 -4 29 -8 49 -8 31 0 69
23 253 155 119 85 219 155 221 155 3 0 5 -623 5 -1385 0 -1530 -5 -1423 63
-1494 18 -18 50 -42 72 -52 38 -18 94 -19 1305 -19 1211 0 1267 1 1305 19 22
10 54 34 72 52 68 71 63 -36 63 1494 0 762 2 1385 5 1385 2 0 102 -70 221
-155 185 -132 222 -155 254 -155 20 0 43 6 52 13 9 6 144 196 302 421 262 374
286 412 286 449 0 41 -4 45 -407 450 -225 225 -417 413 -427 419 -10 6 -208
45 -439 87 l-420 76 -37 109 c-35 101 -57 136 -84 136 -920 6 -1483 3 -1506
-7z m1125 -171 c-16 -10 -105 -60 -197 -111 l-167 -92 -193 107 c-106 59 -195
108 -197 110 -2 2 173 4 390 4 384 0 393 -1 364 -18z m-774 -173 c140 -78 256
-143 259 -145 2 -3 -35 -44 -83 -92 l-87 -87 -190 190 c-154 154 -189 193
-184 210 12 38 23 65 27 65 3 0 119 -63 258 -141z m1096 96 l13 -39 -190 -191
-190 -190 -87 89 c-49 48 -83 90 -78 93 6 2 120 66 255 143 135 76 249 137
254 136 5 -1 15 -20 23 -41z m-1287 -390 c302 -300 265 -293 462 -98 l138 137
138 -137 c197 -195 160 -202 462 97 l235 234 399 -73 399 -73 283 -283 c156
-156 284 -287 284 -292 0 -4 -109 -162 -241 -352 l-242 -345 -46 34 c-232 169
-275 196 -308 196 -47 0 -69 -14 -82 -51 -8 -23 -11 -424 -11 -1390 l0 -1359
-1270 0 -1270 0 0 1359 c0 966 -3 1367 -11 1390 -13 37 -35 51 -82 51 -33 0
-76 -27 -308 -196 l-46 -34 -242 345 c-132 190 -241 348 -241 352 0 5 128 136
284 292 l283 283 394 73 c217 40 396 73 399 74 2 0 111 -105 240 -234z m-1560
-852 c335 -480 302 -428 281 -447 -18 -16 -29 -2 -250 314 -127 181 -231 333
-231 338 0 9 21 32 30 32 3 0 79 -107 170 -237z m4513 216 c7 -12 -45 -94
-223 -348 -222 -317 -233 -331 -251 -315 -18 16 -16 20 49 113 318 457 398
570 406 568 5 -2 14 -10 19 -18z m-1083 -3295 c0 -19 -24 -43 -51 -53 -45 -16
-2393 -16 -2438 0 -27 10 -51 34 -51 53 0 3 572 6 1270 6 699 0 1270 -3 1270
-6z"/>
<path d="M2502 4057 c-50 -53 -13 -137 60 -137 53 0 83 28 83 80 0 32 -6 47
-24 61 -33 27 -92 25 -119 -4z"/>
</g>
</svg>
