<?xml version="1.0" standalone="no"?>
<!DOCTYPE svg PUBLIC "-//W3C//DTD SVG 20010904//EN"
 "http://www.w3.org/TR/2001/REC-SVG-20010904/DTD/svg10.dtd">
<svg version="1.0" xmlns="http://www.w3.org/2000/svg"
 width="512.000000pt" height="512.000000pt" viewBox="0 0 512.000000 512.000000"
 preserveAspectRatio="xMidYMid meet">
<metadata>
Created by potrace 1.16, written by Peter Selinger 2001-2019
</metadata>
<g transform="translate(0.000000,512.000000) scale(0.100000,-0.100000)"
fill="#000000" stroke="none">
<path d="M1226 5105 c-8 -9 -17 -30 -20 -48 -3 -18 -37 -1154 -76 -2525 -69
-2380 -71 -2494 -54 -2513 16 -18 34 -19 440 -19 l424 0 13 23 c8 12 146 660
308 1439 162 780 296 1418 299 1418 3 0 139 -642 302 -1427 230 -1107 301
-1431 314 -1440 14 -10 114 -13 434 -13 400 0 418 1 435 19 16 19 14 130 -54
2493 -40 1360 -74 2497 -77 2526 -9 90 130 82 -1354 82 -1171 0 -1320 -2
-1334 -15z m484 -200 l0 -85 -185 0 -185 0 0 85 0 85 185 0 185 0 0 -85z m780
0 l0 -85 -325 0 -325 0 0 85 0 85 325 0 325 0 0 -85z m760 0 l0 -85 -310 0
-310 0 0 85 0 85 310 0 310 0 0 -85z m530 0 l0 -85 -195 0 -195 0 0 85 0 85
195 0 195 0 0 -85z m-2254 -350 c-16 -304 -98 -609 -186 -690 l-33 -30 7 213
c3 116 9 307 13 422 l6 210 100 0 100 0 -7 -125z m826 -237 l3 -363 26 -56
c55 -117 164 -195 288 -206 109 -10 101 -48 101 509 l0 478 339 0 338 0 7
-117 c17 -287 72 -541 149 -686 54 -103 108 -152 200 -181 11 -4 17 -16 17
-38 0 -18 23 -800 50 -1738 28 -938 50 -1724 50 -1747 l0 -43 -319 0 c-296 0
-320 1 -325 18 -3 9 -149 712 -326 1562 -222 1069 -326 1553 -339 1570 -24 33
-71 38 -96 10 -15 -17 -92 -367 -346 -1588 l-326 -1567 -321 -3 -322 -2 0 52
c0 29 23 809 50 1733 27 924 50 1702 50 1728 0 37 4 49 18 53 83 25 156 93
206 193 72 143 124 393 142 679 l7 112 338 0 338 0 3 -362z m288 -58 c0 -231
-2 -420 -5 -420 -15 0 -63 31 -86 57 -64 68 -64 66 -67 441 l-4 342 81 0 81 0
0 -420z m1153 238 c4 -101 9 -291 13 -423 l5 -240 -40 43 c-87 94 -160 374
-177 686 l-7 116 100 0 100 0 6 -182z"/>
</g>
</svg>
