<?xml version="1.0" standalone="no"?>
<!DOCTYPE svg PUBLIC "-//W3C//DTD SVG 20010904//EN"
 "http://www.w3.org/TR/2001/REC-SVG-20010904/DTD/svg10.dtd">
<svg version="1.0" xmlns="http://www.w3.org/2000/svg"
 width="512.000000pt" height="512.000000pt" viewBox="0 0 512.000000 512.000000"
 preserveAspectRatio="xMidYMid meet">
<metadata>
Created by potrace 1.16, written by Peter Selinger 2001-2019
</metadata>
<g transform="translate(0.000000,512.000000) scale(0.100000,-0.100000)"
fill="#000000" stroke="none">
<path d="M2420 4234 c-1017 -56 -1923 -645 -2375 -1545 -59 -116 -59 -142 0
-258 355 -708 1017 -1248 1780 -1450 253 -68 459 -94 735 -94 276 0 482 26
735 94 763 202 1425 742 1780 1450 59 116 59 142 0 258 -423 844 -1260 1426
-2200 1530 -105 11 -361 20 -455 15z m369 -550 c107 -22 181 -49 293 -106 310
-158 527 -443 604 -793 24 -110 24 -340 0 -450 -102 -463 -444 -803 -906 -902
-116 -24 -325 -24 -440 1 -147 31 -290 89 -402 163 -263 174 -436 428 -504
738 -24 110 -24 340 0 450 67 304 241 563 493 731 133 88 337 164 493 183 96
12 272 5 369 -15z"/>
<path d="M2395 3286 c-277 -63 -502 -290 -560 -563 -19 -88 -19 -239 0 -328
42 -199 190 -392 375 -489 127 -67 188 -81 350 -81 162 0 223 14 350 81 187
98 333 289 376 494 22 103 14 290 -15 380 -78 239 -254 415 -491 491 -84 27
-295 35 -385 15z"/>
</g>
</svg>
