<?xml version="1.0" standalone="no"?>
<!DOCTYPE svg PUBLIC "-//W3C//DTD SVG 20010904//EN"
 "http://www.w3.org/TR/2001/REC-SVG-20010904/DTD/svg10.dtd">
<svg version="1.0" xmlns="http://www.w3.org/2000/svg"
 width="512.000000pt" height="512.000000pt" viewBox="0 0 512.000000 512.000000"
 preserveAspectRatio="xMidYMid meet">
<metadata>
Created by potrace 1.16, written by Peter Selinger 2001-2019
</metadata>
<g transform="translate(0.000000,512.000000) scale(0.100000,-0.100000)"
fill="#000000" stroke="none">
<path d="M3836 4538 c-11 -18 -19 -127 -35 -473 -12 -247 -21 -460 -21 -472 0
-20 -5 -23 -38 -23 -51 0 -134 -43 -167 -85 -57 -75 -55 -48 -55 -925 0 -877
-2 -850 55 -925 33 -42 116 -85 167 -85 33 0 38 -3 38 -22 0 -13 9 -225 21
-473 16 -346 24 -455 35 -472 l14 -23 461 0 c291 0 467 4 479 10 11 6 22 25
24 43 4 24 46 867 46 925 0 7 16 12 43 12 53 0 113 28 154 71 66 70 63 23 63
939 0 916 3 869 -63 939 -41 43 -101 71 -154 71 -27 0 -43 5 -43 12 0 58 -42
901 -46 925 -2 18 -13 37 -24 43 -12 6 -188 10 -479 10 l-461 0 -14 -22z m852
-210 l3 -98 -371 0 -370 0 0 100 0 100 368 -2 367 -3 3 -97z m12 -260 c0 -18
3 -63 7 -100 l6 -68 -392 0 -391 0 0 33 c0 17 3 62 7 100 l6 67 378 0 379 0 0
-32z m20 -398 l0 -100 -402 0 -403 0 3 100 3 100 400 0 399 0 0 -100z m218
-250 c53 -36 52 -15 52 -860 0 -674 -2 -786 -15 -814 -30 -63 -5 -61 -625 -64
-311 -2 -580 0 -599 3 -20 4 -47 20 -63 37 l-28 30 0 804 c0 892 -4 840 65
870 47 21 1180 15 1213 -6z m-218 -1970 l0 -100 -399 0 -400 0 -3 100 -3 100
403 0 402 0 0 -100z m-13 -297 c-4 -38 -7 -83 -7 -100 l0 -33 -379 0 -378 0
-6 68 c-4 37 -7 82 -7 100 l0 32 391 0 392 0 -6 -67z m-19 -360 l-3 -98 -367
-3 -368 -2 0 100 0 100 370 0 371 0 -3 -97z"/>
<path d="M3782 3317 l-22 -23 0 -735 0 -736 23 -21 23 -22 516 0 c493 0 517 1
539 19 l24 19 0 742 0 742 -24 19 c-22 18 -46 19 -540 19 l-518 0 -21 -23z
m468 -181 c0 -49 5 -69 21 -90 26 -33 62 -34 94 -1 22 21 25 33 25 90 l0 65
180 0 180 0 0 -640 0 -640 -180 0 -180 0 0 65 c0 57 -3 69 -25 90 -32 33 -68
32 -94 -1 -16 -21 -21 -41 -21 -90 l0 -64 -175 0 -175 0 0 640 0 640 175 0
175 0 0 -64z"/>
<path d="M4130 2960 c-11 -11 -20 -30 -20 -42 0 -35 140 -380 164 -404 12 -12
79 -52 150 -89 131 -67 157 -73 193 -43 18 14 16 73 -2 92 -8 8 -66 42 -128
75 l-112 60 -69 168 c-37 92 -75 176 -84 186 -20 23 -67 22 -92 -3z"/>
<path d="M727 4418 c-8 -13 -54 -128 -103 -255 l-89 -233 -31 0 c-17 0 -38 -8
-47 -17 -9 -11 -33 -113 -63 -268 -47 -248 -48 -250 -84 -290 -204 -221 -310
-493 -310 -795 0 -302 106 -574 310 -795 36 -40 37 -42 84 -290 30 -155 54
-257 63 -267 9 -10 30 -18 47 -18 l31 0 89 -233 c49 -127 95 -242 103 -254
l13 -23 409 0 c367 0 410 2 422 16 8 9 55 123 106 253 69 179 96 237 110 239
50 8 61 14 71 39 6 16 32 136 57 268 26 132 48 241 49 243 2 1 27 -13 56 -33
52 -35 74 -41 139 -36 90 6 161 87 161 182 0 56 -21 101 -75 158 l-47 50 30
78 c16 43 35 99 42 126 l13 47 93 0 c139 0 134 -10 134 250 0 260 5 250 -134
250 l-93 0 -13 48 c-7 26 -26 82 -42 125 l-30 78 47 50 c54 57 75 102 75 158
0 95 -71 176 -161 182 -65 5 -87 -1 -139 -36 -29 -20 -54 -34 -56 -33 -1 2
-23 111 -49 243 -25 132 -51 252 -57 268 -10 25 -21 31 -71 39 -14 2 -41 60
-110 239 -51 130 -98 244 -106 253 -12 14 -55 16 -422 16 l-409 0 -13 -22z
m820 -295 c40 -103 71 -188 69 -190 -1 -2 -212 -2 -468 -1 l-464 3 62 160 c35
88 68 172 73 188 l10 27 323 0 323 0 72 -187z m198 -345 c8 -33 45 -231 45
-241 0 -4 -33 11 -74 33 -356 196 -799 193 -1138 -5 -33 -20 -62 -35 -63 -33
-2 2 9 63 22 136 l25 132 589 0 589 0 5 -22z m-445 -208 c363 -58 678 -312
804 -649 53 -140 60 -186 60 -361 0 -175 -7 -221 -60 -361 -147 -391 -535
-659 -957 -659 -376 0 -735 226 -910 575 -160 321 -134 703 72 1015 56 86 184
213 276 274 207 140 480 203 715 166z m1080 -1010 l0 -110 -37 0 -38 0 0 110
0 110 38 0 37 0 0 -110z m-1801 -1005 c338 -198 781 -200 1137 -5 41 22 74 37
74 33 0 -10 -37 -208 -45 -240 l-5 -23 -589 0 -589 0 -21 118 c-12 64 -24 125
-27 135 -7 23 -4 22 65 -18z m1039 -374 c-1 -5 -34 -91 -73 -190 l-70 -181
-324 2 -324 3 -32 85 c-18 47 -51 131 -73 188 l-40 102 470 0 c277 0 468 -4
466 -9z"/>
<path d="M1001 3445 c-335 -63 -596 -287 -699 -598 -135 -408 34 -855 402
-1066 412 -236 937 -110 1200 287 99 151 141 297 141 492 0 100 -5 154 -19
210 -84 328 -329 577 -651 660 -104 28 -275 34 -374 15z m307 -141 c47 -9 118
-35 181 -65 89 -44 116 -63 191 -137 98 -98 155 -186 197 -307 26 -74 28 -91
28 -235 0 -144 -2 -161 -28 -235 -42 -121 -99 -209 -197 -307 -75 -74 -102
-93 -191 -137 -135 -65 -234 -86 -379 -78 -224 11 -426 117 -560 294 -98 130
-147 260 -157 423 -20 320 176 625 478 747 131 53 292 67 437 37z"/>
<path d="M734 2936 c-18 -13 -19 -30 -22 -225 l-3 -211 25 -25 25 -25 396 0
c382 0 396 1 415 20 19 19 20 33 20 233 0 195 -2 215 -18 230 -17 15 -60 17
-418 17 -330 0 -404 -3 -420 -14z m726 -231 l0 -115 -305 0 -305 0 0 115 0
115 305 0 305 0 0 -115z"/>
<path d="M724 2265 c-18 -28 -13 -64 12 -89 13 -14 66 -16 418 -16 378 0 404
1 419 18 22 25 21 75 -1 95 -17 15 -61 17 -425 17 l-407 0 -16 -25z"/>
</g>
</svg>
